<?xml version="1.0" encoding="UTF-8"?><svg id="Layer_1" xmlns="http://www.w3.org/2000/svg" viewBox="0 0 1675.2 419.4"><defs><style>.cls-1{fill:gray;}</style></defs><path class="cls-1" d="M70.8,412.2H0V88.2C0,35.4,30,0,93,0c56.4,0,81.6,28.8,98.4,75l118.2,258.6c4.8,9.6,12.6,16.8,25.8,16.8,15,0,24-9,24-22.8V7.2h71.4V330.6c0,53.4-30.6,88.8-93,88.8-56.4,0-82.2-28.8-99-75L120.6,85.8c-5.4-12-12.6-17.4-25.2-17.4-16.2,0-24.6,9-24.6,23.4V412.2Z"/><path class="cls-1" d="M746.4,7.2c91.2,0,130.2,56.4,130.2,121.2,0,50.4-24,104.4-85.8,121.8l94.2,162h-78.6l-92.4-156.6h-105.6c-6.6,0-10.2,3-10.2,10.2v146.4h-70.8V252c0-45.6,19.2-64.2,63.6-64.2h157.8c40.2,0,56.4-27.6,56.4-56.4s-17.4-53.4-56.4-53.4h-222V7.2h219.6Z"/><path class="cls-1" d="M1272,7.2V78h-156.6c-78,0-112.2,39-112.2,132s33.6,131.4,112.2,131.4h156.6v70.8h-156.6c-118.2,0-183-66.6-183-202.2S997.79,7.2,1115.4,7.2h156.6Z"/><path class="cls-1" d="M1675.2,7.2V78h-156.6c-78,0-112.2,39-112.2,132s33.6,131.4,112.2,131.4h156.6v70.8h-156.6c-118.2,0-183-66.6-183-202.2S1400.99,7.2,1518.59,7.2h156.6Z"/></svg>